PathFileType	4	(X/Y/Z)	C:/Users/beibeiliu/ov580/test_trc/User2\sequence.14_training_dense_right.trc
DataRate	CameraRate	NumFrames	NumMarkers	Units	OrigDataRate	OrigDataStartFrame	OrigNumFrames
120	120	24	19	mm	120	263	420
Frame#	Time	ThumbCMC			ThumbMCP			ThumbIP			ThumbTip			IndexMCP			IndexPIP			IndexTip			MiddleMCP			MiddlePIP			MiddleTip			RingMCP			RingPIP			RingTip			PinkyMCP			PinkyPIP			PinkyTip			BackHand1			BackHand2			BackHand3	
		X0	Y0	Z0	X1	Y1	Z1	X2	Y2	Z2	X3	Y3	Z3	X4	Y4	Z4	X5	Y5	Z5	X6	Y6	Z6	X7	Y7	Z7	X8	Y8	Z8	X9	Y9	Z9	X10	Y10	Z10	X11	Y11	Z11	X12	Y12	Z12	X13	Y13	Z13	X14	Y14	Z14	X15	Y15	Z15	X16	Y16	Z16	X17	Y17	Z17	X18	Y18	Z18	
262	2.18333	38.9481	19.5134	72.1134	22.4934	-10.2828	56.5032	18.1313	-36.5646	29.5376	36.6583	-53.6298	11.4308	52.7964	28.1408	-10.8168	50.6764	20.1139	-35.2937	46.8733	8.57855	-61.8406	70.8932	0.711959	-14.7849	53.5176	-32.7266	-20.1287	42.3298	-43.3504	14.786	85.2421	-13.5855	-7.75196	66.8807	-41.8309	-11.5287	52.1531	-53.0656	20.4441	109.896	-18.3132	7.55526	107.264	-36.157	-15.5099	96.1469	-55.7091	-30.1131	107.133	18.5671	45.8597	111.698	30.0574	74.6007	76.9593	42.3073	55.9414	
263	2.19167	38.7608	16.6592	74.0301	21.9184	-13.4552	59.3982	20.2743	-42.5088	33.55	34.5916	-59.9512	18.5076	47.8045	20.0005	-8.26337	40.7798	11.1373	-34.0663	37.461	-2.86963	-55.1166	66.1847	-6.98653	-9.70622	49.3987	-39.1635	-13.6827	35.7333	-47.3814	24.7325	79.9086	-22.1197	-5.0853	65.4789	-52.1797	-4.40251	51.1879	-58.1403	27.843	107.281	-24.3797	11.7109	101.191	-45.8088	-11.0634	88.0106	-64.8018	-24.8196	102.783	16.0172	44.7642	110.041	28.7921	74.2045	74.0937	38.0855	59.5959	
264	2.2	35.8028	18.9147	82.9009	20.2195	-12.9465	67.8036	16.1895	-44.1154	41.613	31.8303	-60.8375	29.7771	42.7831	14.9183	-4.99692	33.2427	5.78633	-27.5814	29.7446	-12.1795	-49.5083	58.5382	-12.6224	-6.59509	41.3519	-45.351	-5.44212	33.3434	-48.3803	36.1482	75.891	-27.3639	0.094164	54.5634	-53.7752	2.4856	45.933	-57.1537	39.8436	99.2889	-26.881	13.5972	92.4248	-49.1417	-8.80186	73.0603	-71.5729	-17.9052	102.218	11.7865	46.2751	106.738	25.9232	72.0994	72.4519	36.941	60.3175	
265	2.20833	38.2144	18.5912	83.0376	16.8608	-12.2236	70.978	10.1282	-43.191	48.7144	26.2994	-62.5968	32.5919	38.7078	13.542	1.11046	27.9785	3.5309	-22.8095	18.6165	-14.2278	-45.6489	49.5229	-15.2361	-4.09911	32.7262	-44.6593	1.34077	30.5184	-48.406	41.71	65.4821	-29.3583	3.54732	48.111	-58.0485	9.85831	39.0852	-57.0175	41.3428	96.0447	-31.3321	13.9053	85.5285	-49.5354	-3.87841	66.1428	-75.2378	-9.31274	96.326	8.14399	43.4272	107.512	26.4966	75.4888	70.4255	37.7888	60.9961	
266	2.21667	33.3977	21.2495	87.7401	15.3641	-8.85493	77.8685	8.19009	-36.8109	56.8195	18.6228	-60.1603	37.2576	34.5972	16.5197	8.65854	19.1598	5.48001	-19.6589	11.6338	-10.7203	-39.4838	43.9101	-13.9021	0.6503	23.7749	-43.1975	6.62386	19.7541	-44.6265	45.3828	57.843	-25.8022	5.93868	44.6787	-54.0546	10.4322	33.6772	-54.3943	46.9408	86.8856	-27.56	19.5429	79.2736	-52.7409	-1.95435	54.3968	-71.0821	-8.70902	93.8669	10.7248	46.756	104.304	22.6459	73.2448	70.4197	36.2734	65.5005	
267	2.225	36.5655	22.7676	94.859	12.4301	-5.40083	79.5597	1.98592	-32.637	58.381	13.2104	-52.4308	39.988	24.5482	25.0528	12.6397	16.7707	13.326	-13.0508	3.79669	-2.1144	-39.577	36.5364	-4.54996	3.47617	19.9524	-36.4295	7.84767	17.4078	-41.6486	45.9394	54.4259	-20.3705	5.66086	34.0322	-45.5175	10.2125	26.4742	-49.5638	47.0724	82.1494	-24.178	18.3758	73.8972	-46.0253	-2.28004	49.9109	-67.5219	-9.26906	89.4554	13.4459	46.1487	103.263	26.3407	74.8299	65.5257	39.5721	66.1691	
268	2.23333	31.9131	24.9161	98.8244	6.36846	-3.87436	79.5545	-0.890893	-27.2301	58.1532	8.42463	-45.9755	31.7933	24.1148	30.9727	11.0356	8.66174	25.3367	-12.2342	-0.873499	14.6914	-35.6021	35.86	3.77236	3.37193	16.0417	-24.6422	3.25038	19.1292	-36.6844	44.7988	50.4786	-10.4101	3.2852	31.4561	-36.5509	5.46379	23.8005	-45.1047	38.7461	81.6933	-17.4876	14.9727	68.5683	-37.5281	-8.80588	51.793	-58.8088	-18.2251	85.1036	19.4092	48.1697	102.216	26.5338	79.7491	63.7711	44.2368	75.4252	
269	2.24167	32.9027	22.113	94.4115	8.81747	-1.41233	75.6525	-1.96332	-24.3719	49.9599	8.7063	-39.5545	26.1467	21.2199	40.0514	15.0902	11.4526	34.161	-13.5314	3.37562	26.7286	-35.8586	35.8657	15.98	3.41939	19.7648	-19.8021	-2.3842	19.9285	-32.8549	36.8288	55.5881	-0.854545	2.3443	35.7309	-26.5421	-3.04317	25.1603	-41.184	27.8997	84.0512	-10.4353	10.4331	71.6134	-26.8217	-12.7789	55.607	-46.4838	-25.9261	85.8603	25.9413	48.5879	99.2121	31.7583	77.9745	61.9605	46.7715	75.4508	
270	2.25	28.4175	23.9549	92.3882	6.98303	-1.30254	72.4086	2.38028	-21.0727	45.1831	14.6773	-34.3239	20.8013	27.7101	44.2084	11.7394	16.8236	40.5434	-16.5607	8.05553	35.5514	-39.6871	39.9715	23.2922	-1.3542	25.5608	-9.05702	-11.9245	18.2068	-27.6147	26.248	58.4133	4.52339	-2.33375	38.2088	-22.4578	-7.00462	28.6106	-38.7916	23.7301	88.4631	-2.35978	9.13841	80.7199	-18.1652	-15.8713	62.0222	-33.2956	-32.3436	88.016	28.4102	52.3703	99.3488	35.3036	82.9984	65.3927	48.9294	76.9355	
271	2.25833	30.6992	23.3793	87.8361	9.43415	-1.20985	63.8692	3.41953	-21.5072	35.3854	20.7293	-32.3225	11.5524	33.3863	46.1872	8.10328	24.4792	44.5261	-20.4298	17.7824	36.7535	-50.3853	49.9993	25.5625	-5.44577	35.9038	-5.50617	-20.1934	27.9154	-27.3219	12.6692	68.085	8.04115	-4.30971	52.1767	-21.7353	-13.7017	36.1756	-37.5672	13.3391	93.9503	0.369998	7.32705	88.8899	-16.6378	-20.9452	75.8149	-28.8313	-38.7769	91.3993	32.367	47.1624	104.821	31.2487	82.9528	66.2832	50.26	73.6008	
272	2.26667	34.4187	23.3002	78.2523	17.9252	-0.597973	55.4935	14.6346	-20.7009	25.9117	26.7571	-34.8011	7.43218	42.0925	46.4967	3.13881	39.0228	43.304	-27.5151	31.8624	36.4056	-53.3357	63.9037	22.8517	-12.9389	46.7736	-7.83378	-25.8739	34.632	-28.702	9.26237	77.4645	7.87599	-6.84981	62.424	-24.1461	-18.3625	45.1082	-37.8938	6.53698	104.5	-3.55513	3.27429	101.57	-19.5622	-21.5221	90.8418	-35.5884	-40.9153	96.7175	29.3191	46.9862	106.604	34.4538	79.1369	74.2411	46.9682	68.3813	
273	2.275	37.8176	23.3358	76.0755	24.2629	-1.59662	49.353	17.2783	-24.4728	24.1292	32.7694	-38.6219	0.913359	53.2105	43.1951	-1.98417	48.5184	40.5432	-31.2226	46.2991	29.4352	-58.7324	74.2222	20.4379	-13.3214	56.7408	-12.3669	-28.9042	43.5441	-31.9008	0.364964	87.713	0.188933	-10.4594	72.8152	-26.8116	-18.8704	50.4338	-40.8251	7.12089	113.745	-7.24239	7.5009	109.77	-19.8341	-18.0403	103.937	-36.6309	-37.455	102.345	30.0415	49.2835	107.633	31.9232	77.2684	76.0886	46.3527	61.6478	
274	2.28333	41.5631	22.3101	75.6782	25.6885	-3.07623	51.9101	22.2769	-27.7528	18.6442	39.157	-42.1131	2.82282	56.2494	39.4393	-8.4295	56.2149	33.7808	-34.9304	51.0631	26.6475	-61.7098	75.4512	15.8138	-17.5776	62.9959	-16.876	-28.7887	45.7143	-35.4398	1.55804	93.4612	-4.64368	-12.4134	78.0639	-27.033	-19.8007	58.0469	-46.1819	7.34069	118.946	-10.4161	10.0684	117.663	-26.6844	-16.6873	110.747	-45.268	-34.0933	105.758	29.3153	46.5725	114.146	32.489	81.5025	79.2155	44.0167	61.1138	
275	2.29167	41.7487	20.1701	74.0054	23.8559	-7.16201	49.6364	27.2216	-28.9894	22.9351	39.0325	-45.5028	3.60844	58.3418	34.7804	-4.2505	53.9382	30.1502	-35.5604	51.0905	19.9943	-64.4178	78.5897	11.8581	-14.5379	62.3393	-20.5298	-25.95	49.8758	-37.8397	4.39619	95.2225	-3.78995	-6.81569	80.8935	-33.3353	-16.5605	59.0639	-46.689	6.33329	118.616	-12.3603	6.64133	114.054	-28.1777	-16.4366	109.482	-46.9111	-33.1021	107.781	24.1826	43.4368	110.364	33.8385	79.4336	79.2854	42.6212	62.8955	
276	2.3	40.7382	19.9851	79.7805	21.3944	-8.27942	55.8377	19.131	-32.7723	28.3771	35.9355	-48.3755	7.22033	52.187	34.3261	-1.57921	50.0045	26.8124	-31.186	42.54	16.1849	-61.1147	69.3414	11.9803	-10.3476	56.4838	-24.2446	-20.8481	47.1889	-39.8195	11.6749	86.2943	-6.81957	-9.55753	71.2968	-35.0669	-14.226	56.358	-48.5449	10.2303	111.005	-10.0549	6.49859	108.021	-29.1976	-16.5389	102.536	-49.5485	-32.6776	102.038	24.9205	44.1312	111.497	30.914	80.4302	76.7456	42.6747	62.3111	
277	2.30833	39.2499	19.0902	78.9725	20.9734	-7.3918	60.5356	15.3603	-33.6652	33.7495	29.5237	-48.747	18.865	43.3986	31.9886	-0.953939	34.3986	26.2015	-26.6614	29.5321	11.1885	-56.3718	60.8326	8.3992	-8.36521	45.3991	-24.1181	-16.4566	39.2943	-39.4373	24.3488	75.5675	-7.15028	-7.25612	64.5426	-34.6476	-12.5667	44.8019	-47.3989	18.642	104.362	-12.5141	9.38891	101.343	-33.129	-16.5447	86.1573	-51.0483	-30.9261	98.8098	23.3737	44.9868	108.183	32.615	79.3056	70.235	45.506	64.6258	
278	2.31667	33.2689	20.2322	86.2451	15.853	-7.44739	66.4417	7.84487	-33.2505	42.2691	22.2763	-48.8837	21.347	30.0353	34.1528	5.49843	19.4836	26.3607	-21.923	12.1553	13.7251	-44.3275	49.7987	6.50065	-5.62079	30.6005	-22.4165	-11.7908	25.451	-39.0931	25.3915	63.289	-6.27706	-5.36777	49.3843	-33.6258	-9.43217	38.1226	-46.6928	22.3007	94.3711	-11.4989	9.71939	90.5475	-29.6992	-15.2399	72.5793	-51.3822	-32.7254	91.8698	22.2292	44.9242	107.918	30.6818	77.345	65.9499	44.5877	67.0805	
279	2.325	32.4527	21.1443	93.2418	9.63613	-6.94085	76.4804	-2.32314	-31.6327	52.4684	10.1099	-46.9137	30.6156	23.0449	33.9222	10.9354	8.23049	28.3564	-14.6975	-5.81123	22.5304	-34.8888	38.3334	9.90318	-0.347786	18.2788	-22.6161	-6.06323	15.125	-38.5171	27.7891	52.9764	-3.52796	-1.59346	36.6966	-31.3357	-6.38981	28.0077	-46.0417	23.8117	85.6793	-12.8287	9.70807	76.3093	-28.1088	-15.5926	56.9907	-44.7934	-32.52	89.7802	21.7831	48.7719	100.458	31.2249	76.1263	65.1427	45.0406	69.9177	
280	2.33333	30.5555	21.5456	99.1503	7.79269	-4.41665	82.6855	-4.78775	-29.1071	53.8749	2.1857	-45.6374	32.1145	18.7738	35.2909	16.343	-0.024043	33.5583	-9.39595	-15.0058	27.3802	-31.494	29.2462	11.3629	-0.241076	11.7916	-17.104	-4.45482	7.52258	-37.0615	32.7627	43.4238	-2.72777	0.445202	26.624	-26.0391	-4.18934	20.3122	-44.8633	28.7619	75.8453	-10.2916	11.8633	65.5365	-26.927	-15.772	44.3187	-42.5103	-30.0648	81.5318	21.8704	46.4645	99.2215	27.5107	75.6395	60.4951	43.1083	71.2021	
281	2.34167	30.7643	24.0837	97.6734	4.73268	-1.56296	81.0159	-8.06748	-23.7059	56.651	-5.89831	-41.8602	35.0176	18.316	37.8547	18.5123	-0.509968	36.8264	-5.45983	-11.5901	30.2857	-28.4161	30.3662	15.0456	2.95943	2.29029	-13.3306	-2.48832	1.85969	-34.7702	30.5377	46.1885	-3.0665	3.90533	21.1919	-26.7314	-1.42682	12.0782	-40.3595	31.9576	71.2696	-13.0968	11.9739	59.2193	-27.6538	-12.7953	40.7874	-46.8712	-30.2934	80.2597	18.9758	48.7264	97.4372	24.8624	76.7447	62.1079	43.8875	72.9576	
282	2.35	31.2044	27.8722	95.5618	1.86267	4.59144	81.1905	-12.4121	-16.9121	59.2545	-9.25098	-35.4735	36.7552	19.0702	42.0268	13.9129	8.12302	37.3801	-10.5311	-6.08948	30.6987	-34.6255	31.9285	13.7817	-1.07085	4.60671	-11.5334	-4.96238	-3.25486	-29.814	29.2395	42.5556	-4.90476	0.125875	20.6853	-26.1017	-1.48669	7.55692	-37.5319	29.2531	70.8066	-16.6088	12.0731	55.7926	-32.3045	-13.869	36.1246	-44.6013	-28.7327	85.6399	16.7223	47.1519	100.24	22.3738	78.8342	65.6806	44.9391	70.0573	
283	2.35833	36.1233	31.6328	90.5018	5.47107	11.3059	74.2691	-10.8924	-9.69699	53.1687	-8.7033	-28.2248	33.1776	31.5353	42.9989	10.5935	17.3591	37.7607	-19.7113	2.7098	32.7433	-42.84	38.8582	14.9987	-1.75439	10.214	-9.53875	-9.49908	-3.36293	-25.6714	24.0485	49.8178	-9.2713	-0.527202	21.383	-27.6242	-3.56811	6.3228	-36.6881	25.7131	72.2684	-24.5823	12.5073	57.6688	-39.4282	-10.5212	36.2456	-48.5774	-24.3762	87.282	11.0413	46.034	105.546	13.5003	75.572	73.9239	42.3559	67.301	
284	2.36667	44.1328	34.5659	83.867	9.09037	19.4154	67.7035	-10.5883	1.5858	49.4511	-12.9328	-22.9333	26.1495	43.3177	39.9332	3.29864	30.5361	36.6212	-25.7815	15.4993	30.4427	-50.5891	46.0677	9.59324	-7.84851	12.5279	-8.99097	-14.617	-5.69192	-17.2752	20.0968	51.2669	-14.1358	-4.26897	24.6165	-29.0336	-6.59185	2.76193	-30.3244	25.2978	68.2221	-29.9457	9.42925	50.796	-42.6195	-11.9656	32.2104	-52.9377	-23.2134	91.7539	0.356593	43.5381	109.061	6.7449	75.6285	85.4441	34.5945	62.0092	
285	2.375	52.1227	36.9975	73.194	18.6406	25.1316	58.9502	-6.02342	9.48487	40.5239	-9.79888	-14.613	23.7944	56.0984	33.1667	-5.89016	44.6009	25.5367	-33.1489	30.473	22.4274	-57.2582	54.3714	4.06679	-10.9086	17.7331	-9.64717	-18.1912	-2.44256	-13.563	14.2242	53.0915	-22.6345	-5.02907	25.1316	-29.7045	-9.30381	2.76208	-27.7732	22.5066	67.9073	-41.8207	10.2422	48.4659	-51.6666	-10.1075	29.7381	-59.82	-21.8635	95.9592	-4.5265	43.4445	108.605	-2.3899	70.5681	92.4508	30.0975	58.5223	
